<svg xmlns="http://www.w3.org/2000/svg" width="1080" height="1920" viewBox="0 0 1080 1920">
  <rect width="1080" height="1920" fill="#ffe8d7"/>
  <path d="M90 210 C260 80 390 360 520 190 S880 110 980 300" fill="none" stroke="#ff5e7e" stroke-width="34" stroke-linecap="round"/>
  <path d="M80 620 C220 480 360 730 520 580 S820 500 990 690" fill="none" stroke="#19c7d4" stroke-width="26" stroke-linecap="round"/>
  <path d="M130 1510 C290 1360 440 1630 610 1470 S860 1390 1000 1540" fill="none" stroke="#ffb000" stroke-width="40" stroke-linecap="round"/>
  <circle cx="215" cy="395" r="85" fill="none" stroke="#ff7a00" stroke-width="20"/>
  <circle cx="865" cy="430" r="105" fill="none" stroke="#d66bff" stroke-width="22"/>
  <path d="M200 1010 q100 -130 210 0 q-110 120 -210 0Z" fill="none" stroke="#ff4db8" stroke-width="24"/>
  <path d="M780 1000 q90 -120 190 0 q-100 120 -190 0Z" fill="none" stroke="#ff6b35" stroke-width="24"/>

  <ellipse cx="540" cy="705" rx="170" ry="205" fill="#d59a73" stroke="#083f46" stroke-width="16"/>
  <path d="M370 620 C390 430 700 430 720 620 C690 535 410 535 370 620Z" fill="#2b2220" stroke="#083f46" stroke-width="14"/>
  <circle cx="480" cy="700" r="18" fill="#1d1d1d"/>
  <circle cx="600" cy="700" r="18" fill="#1d1d1d"/>
  <path d="M500 800 Q540 830 585 800" fill="none" stroke="#4a1f1c" stroke-width="12" stroke-linecap="round"/>

  <path d="M285 930 C360 820 720 820 795 930 L880 1720 C670 1800 410 1800 200 1720Z" fill="#f5f0df" stroke="#083f46" stroke-width="18"/>
  <path d="M345 950 L450 1710" stroke="#ff5e7e" stroke-width="45" stroke-linecap="round"/>
  <path d="M520 910 L680 1720" stroke="#ff8a00" stroke-width="42" stroke-linecap="round"/>
  <path d="M710 1010 L780 1620" stroke="#1ac9d3" stroke-width="34" stroke-linecap="round"/>
  <path d="M280 1180 C440 1080 580 1320 780 1190" fill="none" stroke="#ffd23f" stroke-width="36" stroke-linecap="round"/>
  <path d="M250 1460 C430 1360 610 1590 845 1440" fill="none" stroke="#d66bff" stroke-width="32" stroke-linecap="round"/>
  <path d="M315 945 C420 1060 670 1060 765 945" fill="none" stroke="#083f46" stroke-width="16"/>
  <text x="540" y="1860" text-anchor="middle" font-family="Arial, sans-serif" font-size="44" fill="#083f46">Neon Doodle Pop-Art Style Preview</text>
</svg>
